<svg width="137" height="137" viewBox="0 0 137 137" fill="none" xmlns="http://www.w3.org/2000/svg">
<circle cx="68.5" cy="68.5" r="68.5" fill="#339535"/>
<path d="M67.9964 69.0036C76.4575 69.0036 83.3166 62.1445 83.3166 53.6834C83.3166 45.2224 76.4575 38.3633 67.9964 38.3633C59.5353 38.3633 52.6763 45.2224 52.6763 53.6834C52.6763 62.1445 59.5353 69.0036 67.9964 69.0036Z" stroke="#F8F8F8" stroke-width="2"/>
<path d="M83.3166 75.1317H84.3952C86.6352 75.1323 88.7979 75.9509 90.477 77.4337C92.1561 78.9164 93.236 80.9612 93.5137 83.184L94.7118 92.756C94.8195 93.6183 94.7427 94.4937 94.4862 95.324C94.2298 96.1543 93.7998 96.9206 93.2246 97.5721C92.6494 98.2235 91.9422 98.7451 91.15 99.1023C90.3578 99.4595 89.4987 99.6442 88.6297 99.644H47.3633C46.4943 99.6442 45.6352 99.4595 44.843 99.1023C44.0508 98.7451 43.3436 98.2235 42.7684 97.5721C42.1932 96.9206 41.7631 96.1543 41.5067 95.324C41.2503 94.4937 41.1734 93.6183 41.2812 92.756L42.4762 83.184C42.7541 80.9602 43.8348 78.9145 45.5152 77.4316C47.1955 75.9488 49.3597 75.1309 51.6008 75.1317H52.6763" stroke="#F8F8F8" stroke-width="2" stroke-linecap="round" stroke-linejoin="round"/>
</svg>
