<svg width="33" height="33" viewBox="0 0 33 33" fill="none" xmlns="http://www.w3.org/2000/svg">
<circle cx="16.5" cy="16.5" r="16.5" fill="#339535"/>
<g clip-path="url(#clip0_29_229)">
<path d="M16.3787 16.6212C18.4168 16.6212 20.069 14.9691 20.069 12.931C20.069 10.8929 18.4168 9.24072 16.3787 9.24072C14.3407 9.24072 12.6885 10.8929 12.6885 12.931C12.6885 14.9691 14.3407 16.6212 16.3787 16.6212Z" stroke="#F8F8F8" stroke-width="2"/>
<path d="M20.069 18.0973H20.3288C20.8683 18.0974 21.3893 18.2946 21.7937 18.6518C22.1982 19.0089 22.4583 19.5015 22.5252 20.0369L22.8138 22.3426C22.8397 22.5503 22.8212 22.7611 22.7595 22.9611C22.6977 23.1611 22.5941 23.3457 22.4556 23.5026C22.317 23.6595 22.1467 23.7852 21.9558 23.8712C21.765 23.9573 21.5581 24.0017 21.3488 24.0017H11.4087C11.1994 24.0017 10.9924 23.9573 10.8016 23.8712C10.6108 23.7852 10.4404 23.6595 10.3019 23.5026C10.1633 23.3457 10.0597 23.1611 9.99797 22.9611C9.9362 22.7611 9.91769 22.5503 9.94364 22.3426L10.2315 20.0369C10.2984 19.5012 10.5587 19.0085 10.9635 18.6513C11.3683 18.2941 11.8896 18.0971 12.4294 18.0973H12.6885" stroke="#F8F8F8" stroke-width="2" stroke-linecap="round" stroke-linejoin="round"/>
</g>
<defs>
<clipPath id="clip0_29_229">
<rect width="17.7132" height="17.7132" fill="white" transform="translate(7.52209 7.76465)"/>
</clipPath>
</defs>
</svg>